# xmcd CD database file
#
# Track frame offsets:
#	150
#	14629
#	26946
#	39396
#	53344
#	67118
#	81028
#	95271
#	108680
#	121531
#	135018
#	147948
#	162423
#	174497
#	188761
#	202459
#	214329
#	228633
#	243491
#	257939
#	272332
#	286445
#	299558
#	311748
#	330963
#	342986
#
# Disc length: 4732 seconds
#
# Revision: 0
# Processed by: cddbd v1.5.2PL0 Copyright (c) Steve Scherf et al.
# Submitted via: CDex 1.51
#
DISCID=8a127a1a
DTITLE=Various Artist - Cat Yronwode's Hoodoo Jukebox
DYEAR=2013
DGENRE=Blues
TTITLE0=Arnold and Irene Wiley - The Dixie Drug Store Down On Missouri Street
TTITLE1=Arnold Wiley - Spider In Your Dumpling
TTITLE2=Jim Towel and Cow Cow Davenport - I've Been Hoodooed
TTITLE3=Sara Martin - I'm Gonna Hoodoo You
TTITLE4=Leola "Cool" Grant and Wesley Wilson - Keep Your Hands Off My Mojo
TTITLE5=Blind Willie McTell - Scarey Day Blues
TTITLE6=Clifford Gibson - Don't Put That Thing On Me
TTITLE7=Mararet Whitmire - That Thing's Done Been Put On Me
TTITLE8="Funny Papa" Smith - Seven Sisters Blues - Part 1
TTITLE9="Funny Papa" Smith - Seven Sisters Blues - Part 2
TTITLE10=Walter "Furry" Lewis - Black Gipsy Blues
TTITLE11=Hattie Hudson - Doggone My Good Luck Soul
TTITLE12=Bill "Jazz" Gillum - The Blues What Am
TTITLE13=Black Spider Dumpling (John D. Twitty) - Sold It To The Devil
TTITLE14=Johnnie Temple - Hoodoo Women
TTITLE15=Johnnie Temple - Jinks Lee Blues
TTITLE16=Johnny Shines - Hoo-Doo Snake Doctor Blues
TTITLE17=Wayman "Sloppy" Henry - Jomo Man Blues
TTITLE18=Memphis Jug Band with Will Shade vocals - Aunt Caroline Dyer Blues
TTITLE19=Memphis Jug Band with Hattie Hart vocals - Spider's Nest Blues
TTITLE20=Memphis Minnie (Lizzie Douglas McCoy) - Hoodoo Lady
TTITLE21=Robert Johnson - Come On In My Kitchen
TTITLE22=Robert Johnson - Hellhound On My Trail
TTITLE23=Eddie "Son" House - The Jinx Blues #2
TTITLE24=K. C. Douglas - Black Cat Bone (short version)
TTITLE25=Willie Lane - Black Cat Bone (released take)
EXTD=YEAR: 2013
EXTT0=
EXTT1=
EXTT2=
EXTT3=
EXTT4=
EXTT5=
EXTT6=
EXTT7=
EXTT8=
EXTT9=
EXTT10=
EXTT11=
EXTT12=
EXTT13=
EXTT14=
EXTT15=
EXTT16=
EXTT17=
EXTT18=
EXTT19=
EXTT20=
EXTT21=
EXTT22=
EXTT23=
EXTT24=
EXTT25=
PLAYORDER=
